# AST/ASF file generated using VICON BodyLanguage
# -----------------------------------------------
:version 1.10
:name VICON
:units
  mass 1.0
  length 0.45
  angle deg
:documentation
   .ast/.asf automatically generated from VICON data using
   VICON BodyBuilder and BodyLanguage model FoxedUp or BRILLIANT.MOD
:root
   order TX TY TZ RX RY RZ
   axis XYZ
   position 0 0 0  
   orientation 0 0 0 
:bonedata
  begin
     id 1 
     name lhipjoint
     direction 0.677091 -0.635792 0.370561 
     length 2.74323 
     axis 0 0 0  XYZ
  end
  begin
     id 2 
     name lfemur
     direction 0.34202 -0.939693 0  
     length 7.44995  
     axis 0 0 20  XYZ
    dof rx ry rz
    limits (-160.0 20.0)
           (-70.0 70.0)
           (-60.0 70.0)
  end
  begin
     id 3 
     name ltibia
     direction 0.34202 -0.939693 0   
     length 7.34467   
     axis 0 0 20   XYZ
    dof rx
    limits (-10.0 170.0)
  end
  begin
     id 4 
     name lfoot
     direction 0.101953 -0.280114 0.954537   
     length 1.72105   
     axis -90 7.62852e-016 20   XYZ
    dof rx rz
    limits (-45.0 90.0)
           (-70.0 20.0)
  end
  begin
     id 5 
     name ltoes
     direction 1.53537e-011 -4.21915e-011 1   
     length 0.865872   
     axis -90 7.62852e-016 20   XYZ
    dof rx
    limits (-90.0 20.0)
  end
  begin
     id 6 
     name rhipjoint
     direction -0.695735 -0.620586 0.361699   
     length 2.81045  
     axis 0 0 0  XYZ 
  end
  begin
     id 7 
     name rfemur
     direction -0.34202 -0.939693 0   
     length 7.29387   
     axis 0 0 -20   XYZ
    dof rx ry rz
    limits (-160.0 20.0)
           (-70.0 70.0)
           (-70.0 60.0)
  end
  begin
     id 8 
     name rtibia
     direction -0.34202 -0.939693 0   
     length 7.44935   
     axis 0 0 -20   XYZ
    dof rx
    limits (-10.0 170.0)
 end
 begin
     id 9 
     name rfoot
     direction -0.104163 -0.286184 0.952496   
     length 1.77731  
     axis -90 -7.62852e-016 -20   XYZ
    dof rx rz
    limits (-45.0 90.0)
           (-20.0 70.0)
  end
  begin
     id 10 
     name rtoes
     direction -1.5355e-011 -4.21888e-011 1   
     length 0.892424   
     axis -90 -7.62852e-016 -20   XYZ
    dof rx
    limits (-90.0 20.0)
  end
  begin
     id 11 
     name lowerback
     direction 0.0100202 0.997226 -0.0737589   
     length 2.16892   
     axis 0 0 0   XYZ
    dof rx ry rz
    limits (-20.0 45.0)
           (-30.0 30.0)
           (-30.0 30.0)
  end
  begin
     id 12 
     name upperback
     direction 0.00432398 0.999988 -0.00215019   
     length 2.17326   
     axis 0 0 0   XYZ
    dof rx ry rz
    limits (-20.0 45.0)
           (-30.0 30.0)
           (-30.0 30.0)
  end
  begin
     id 13 
     name thorax
     direction -0.00195047 0.999485 0.0320434   
     length 2.18139   
     axis 0 0 0   XYZ
    dof rx ry rz
    limits (-20.0 45.0)
           (-30.0 30.0)
           (-30.0 30.0)
  end
  begin
     id 14 
     name lowerneck
     direction 0.00782762 0.986241 0.165128   
     length 1.88415   
     axis 0 0 0   XYZ
    dof rx ry rz
    limits (-20.0 45.0)
           (-30.0 30.0)
           (-30.0 30.0)
  end
  begin
     id 15 
     name upperneck
     direction 0.00988667 0.981098 -0.193258   
     length 1.9242   
     axis 0 0 0   XYZ
    dof rx ry rz
    limits (-20.0 45.0)
           (-30.0 30.0)
           (-30.0 30.0)
  end
  begin
     id 16
     name head
     direction 0.00252199 0.996513 -0.0833958  
     length 1.93887  
     axis 0 0 0   XYZ
    dof rx ry rz
    limits (-20.0 45.0)
           (-30.0 30.0)
           (-30.0 30.0)
  end
  begin
     id 17 
     name lclavicle
     direction 0.929492 0.368193 -0.0218667  
     length 3.5955  
     axis 0 0 0   XYZ
    dof ry rz
    limits (-20.0 10.0)
           (0.0 20.0)
  end
  begin
     id 18 
     name lhumerus
     direction 1 -4.48972e-011 1.41911e-027   
     length 5.2795   
     axis 180 -30 -90   XYZ
    dof rx ry rz
    limits (-60.0 90.0)
           (-90.0 90.0)
           (-90.0 90.0)
  end
  begin
     id 19
     name lradius
     direction 1 -4.48963e-011 7.05772e-027   
     length 3.53504   
     axis 180 -30 -90   XYZ
    dof rx
    limits (-10.0 170.0)
  end
  begin
     id 20
     name lwrist
     direction 1 -4.48957e-011 9.54866e-027   
     length 1.76752   
     axis -7.69462e-015 90 90   XYZ
    dof ry
    limits (-180.0 0.0)
 end
  begin
     id 21 
     name lhand
     direction 1 -4.48979e-011 1.90973e-026   
     length 0.667948   
     axis -1.21857e-014 90 90   XYZ
    dof rx rz
    limits (-90.0 90.0)
           (-45.0 45.0)
  end
  begin
     id 22 
     name lfingers
     direction 1 -4.48987e-011 3.81946e-026   
     length 0.538517   
     axis -2.43714e-014 90 90   XYZ
    dof rx
    limits (0.0 90.0)
  end
  begin
     id 23
     name lthumb
     direction 0.707107 -6.34962e-011 0.707107   
     length 0.773206   
     axis -90 45 2.85299e-015   XYZ
    dof rx rz
    limits (-45.0 45.0)
           (-45.0 45.0)
  end
  begin
     id 24 
     name rclavicle
     direction -0.898763 0.414256 -0.143584   
     length 3.5176  
     axis 0 0 0   XYZ 
    dof ry rz
    limits (-10.0 20.0)
           (-20.0 0.0)
  end
  begin
     id 25 
     name rhumerus
     direction -1 -4.48971e-011 1.129e-027  
     length 5.25035   
     axis 180 30 90   XYZ
    dof rx ry rz
    limits (-90.0 60.0)
           (-90.0 90.0)
           (-90.0 90.0)
  end
  begin
     id 26 
     name rradius
     direction -1 -4.48955e-011 6.34664e-027   
     length 3.58884   
     axis 180 30 90   XYZ
    dof rx
    limits (-10.0 170.0)
  end
  begin
     id 27 
     name rwrist
     direction -1 -4.48966e-011 9.54866e-027   
     length 1.79442   
     axis -7.69462e-015 -90 -90   XYZ
    dof ry
    limits (-180.0 0.0)
  end
  begin
     id 28
     name rhand
     direction -1 -4.48973e-011 1.90973e-026   
     length 0.779235   
     axis -1.21857e-014 -90 -90   XYZ
    dof rx rz
    limits (-90.0 90.0)
           (-45.0 45.0)
  end
  begin
     id 29
     name rfingers
     direction -1 -4.48984e-011 3.81946e-026   
     length 0.62824   
     axis -2.43714e-014 -90 -90   XYZ
    dof rx
    limits (0.0 90.0)
  end
  begin
     id 30
     name rthumb
     direction -0.707107 -6.34968e-011 0.707107   
     length 0.90203   
     axis -90 -45 -2.85299e-015   XYZ
    dof rx rz
    limits (-45.0 45.0)
           (-45.0 45.0)
  end
:hierarchy
  begin
    root lhipjoint rhipjoint lowerback
    lhipjoint lfemur
    lfemur ltibia
    ltibia lfoot
    lfoot ltoes
    rhipjoint rfemur
    rfemur rtibia
    rtibia rfoot
    rfoot rtoes
    lowerback upperback
    upperback thorax
    thorax lowerneck lclavicle rclavicle
    lowerneck upperneck
    upperneck head
    lclavicle lhumerus
    lhumerus lradius
    lradius lwrist
    lwrist lhand lthumb
    lhand lfingers
    rclavicle rhumerus
    rhumerus rradius
    rradius rwrist
    rwrist rhand rthumb
    rhand rfingers
  end

#!OML:ASF I:\Random Stuff\random\construction\7_22_03\Session 2\subj1.ASF
:FULLY-SPECIFIED
:DEGREES
190
root -0.213404 17.8865 -0.836165 0.472805 69.5324 -10.7849
lowerback 2.60884 0.584531 -2.13151
upperback -0.252237 0.707799 -0.297961
thorax -1.74319 0.37278 0.860246
lowerneck -19.2695 -1.73745 1.6877
upperneck 46.8811 -3.46694 4.19738
head 23.7902 0.220828 1.46373
rclavicle -4.13472e-014 1.43125e-014
rhumerus -23.2145 30.9896 -93.6593
rradius 81.9487
rwrist -28.1471
rhand -25.5749 -2.32155
rfingers 7.12502
rthumb 0.956365 -32.2992
lclavicle -4.13472e-014 1.43125e-014
lhumerus -31.9361 -29.744 101.773
lradius 82.1427
lwrist 60.1451
lhand -22.174 74.2827
lfingers 7.12502
lthumb 4.24074 -104.22
rfemur -7.74243 9.33911 20.4199
rtibia 1.70955e-014
rfoot 0.406565 -14.08
rtoes -18.4148
lfemur -16.437 -18.8872 -10.4894
ltibia 19.2206
lfoot -13.8924 20.1411
ltoes -26.1012
191
root -0.211136 17.8857 -0.833922 0.607257 69.5888 -10.5645
lowerback 2.67867 0.603462 -2.10354
upperback -0.260912 0.731508 -0.329631
thorax -1.79123 0.384736 0.810303
lowerneck -19.2514 -1.72701 1.66519
upperneck 46.9097 -3.47712 4.29581
head 23.8204 0.228662 1.52562
rclavicle 2.42517e-014 -8.74653e-015
rhumerus -23.5271 30.8385 -94.017
rradius 82.2212
rwrist -28.8852
rhand -25.6207 -2.50599
rfingers 7.12502
rthumb 0.912115 -32.4838
lclavicle 2.42517e-014 -8.74653e-015
lhumerus -31.5901 -29.3627 101.476
lradius 82.3713
lwrist 59.5844
lhand -18.2514 76.1597
lfingers 7.12502
lthumb 8.02768 -105.987
rfemur -7.6464 9.28153 20.3526
rtibia 7.15625e-015
rfoot 0.449835 -14.0044
rtoes -19.232
lfemur -16.3369 -18.8789 -10.6164
ltibia 19.1607
lfoot -13.8606 20.1004
ltoes -26.146
192
root -0.20904 17.8851 -0.831493 0.836706 69.5973 -10.2245
lowerback 2.7479 0.627376 -2.13406
upperback -0.249648 0.760233 -0.366704
thorax -1.81928 0.399446 0.787453
lowerneck -19.1982 -1.67126 1.70179
upperneck 46.8362 -3.42457 4.3469
head 23.7245 0.259138 1.55479
rclavicle -2.5842e-014 -2.38542e-015
rhumerus -23.7496 30.7385 -94.249
rradius 82.4221
rwrist -29.6518
rhand -25.2806 -2.56977
rfingers 7.12502
rthumb 1.24056 -32.5459
lclavicle -2.5842e-014 -2.38542e-015
lhumerus -31.274 -29.4159 101.335
lradius 82.3111
lwrist 60.6522
lhand -17.5455 76.729
lfingers 7.12502
lthumb 8.70897 -106.529
rfemur -7.54032 9.26981 20.2393
rtibia -7.55382e-015
rfoot 0.43014 -14.0057
rtoes -19.0722
lfemur -16.2112 -18.9099 -10.7921
ltibia 19.1401
lfoot -13.8336 20.1081
ltoes -25.9916
193
root -0.206586 17.8853 -0.828114 0.916602 69.5492 -10.0784
lowerback 2.7709 0.677371 -2.10273
upperback -0.249767 0.827095 -0.378958
thorax -1.83365 0.432579 0.754131
lowerneck -19.1767 -1.63399 1.77091
upperneck 46.7353 -3.38288 4.31088
head 23.6084 0.279623 1.52264
rclavicle -3.81667e-014 1.82882e-014
rhumerus -23.9663 30.856 -94.4344
rradius 82.5331
rwrist -30.0478
rhand -24.8246 -2.45334
rfingers 7.12502
rthumb 1.68094 -32.4265
lclavicle -3.81667e-014 1.82882e-014
lhumerus -31.106 -29.7997 101.427
lradius 82.0405
lwrist 63.2329
lhand -18.0366 76.2399
lfingers 7.12502
lthumb 8.23506 -106.059
rfemur -7.48228 9.31784 20.2025
rtibia 3.97569e-015
rfoot 0.51027 -13.8923
rtoes -19.6375
lfemur -16.1129 -19.0257 -10.8589
ltibia 19.1499
lfoot -13.9234 20.189
ltoes -25.2304
194
root -0.202976 17.8843 -0.824247 0.87548 69.522 -10.1132
lowerback 2.7182 0.733457 -2.01536
upperback -0.25528 0.906172 -0.363416
thorax -1.81088 0.471033 0.718302
lowerneck -19.2487 -1.64584 1.83611
upperneck 46.7331 -3.39831 4.22947
head 23.6293 0.277823 1.46052
rclavicle 1.11319e-014 -3.97569e-015
rhumerus -24.2214 31.1452 -94.6145
rradius 82.5796
rwrist -29.8188
rhand -24.5571 -2.2683
rfingers 7.12502
rthumb 1.93931 -32.2392
lclavicle 1.11319e-014 -3.97569e-015
lhumerus -30.7703 -29.673 101.288
lradius 81.9481
lwrist 65.4111
lhand -16.7693 76.5954
lfingers 7.12502
lthumb 9.45794 -106.363
rfemur -7.46302 9.34837 20.233
rtibia -8.34896e-015
rfoot 0.606478 -13.7967
rtoes -20.6289
lfemur -16.0825 -19.1393 -10.8318
ltibia 19.1638
lfoot -14.0424 20.2327
ltoes -24.5476
195
root -0.199011 17.8824 -0.820214 0.882704 69.5437 -10.1095
lowerback 2.6409 0.771097 -1.9362
upperback -0.262251 0.960703 -0.361184
thorax -1.77487 0.497201 0.67493
lowerneck -19.3652 -1.65015 1.86632
upperneck 46.8366 -3.42664 4.25167
head 23.7844 0.283363 1.47095
rclavicle -9.54166e-015 1.59028e-015
rhumerus -24.5327 31.5294 -94.8094
rradius 82.6286
rwrist -29.3101
rhand -24.4541 -1.96064
rfingers 7.12502
rthumb 2.03884 -31.9306
lclavicle -9.54166e-015 1.59028e-015
lhumerus -30.3775 -29.428 101.087
lradius 81.7899
lwrist 67.7261
lhand -16.089 76.2322
lfingers 7.12502
lthumb 10.1143 -105.969
rfemur -7.44056 9.32936 20.2442
rtibia 2.3059e-014
rfoot 0.547613 -13.9064
rtoes -20.4034
lfemur -16.0871 -19.073 -10.8401
ltibia 19.1862
lfoot -14.0281 20.1287
ltoes -24.58
196
root -0.196559 17.8821 -0.815621 0.895568 69.5578 -10.081
lowerback 2.62026 0.798941 -1.87249
upperback -0.287696 1.00006 -0.352036
thorax -1.78948 0.516496 0.647031
lowerneck -19.3834 -1.59118 1.88392
upperneck 46.8235 -3.36585 4.31586
head 23.7812 0.318118 1.51965
rclavicle -3.04141e-014 5.56597e-015
rhumerus -24.9262 32.0593 -95.0152
rradius 82.7038
rwrist -28.8709
rhand -24.317 -1.39632
rfingers 7.12502
rthumb 2.17117 -31.365
lclavicle -3.04141e-014 5.56597e-015
lhumerus -29.93 -29.2123 100.923
lradius 81.5465
lwrist 69.4109
lhand -15.7946 75.8028
lfingers 7.12502
lthumb 10.3983 -105.526
rfemur -7.40946 9.3172 20.2475
rtibia -2.22639e-014
rfoot 0.474586 -14.0144
rtoes -19.6684
lfemur -16.073 -18.9855 -10.8671
ltibia 19.2159
lfoot -14.0058 20.0344
ltoes -24.6903
197
root -0.195607 17.8823 -0.810533 0.919159 69.5738 -10.0089
lowerback 2.65267 0.804373 -1.83164
upperback -0.318235 1.00776 -0.327957
thorax -1.83892 0.520551 0.647743
lowerneck -19.3155 -1.48768 1.92193
upperneck 46.6697 -3.21013 4.29953
head 23.5902 0.373109 1.52806
rclavicle 3.598e-014 1.59028e-015
rhumerus -25.3707 32.7072 -95.2407
rradius 82.7889
rwrist -28.5971
rhand -24.1088 -0.764163
rfingers 7.12502
rthumb 2.37227 -30.7307
lclavicle 3.598e-014 1.59028e-015
lhumerus -29.4981 -28.9665 100.814
lradius 81.2862
lwrist 70.2241
lhand -15.761 75.5246
lfingers 7.12502
lthumb 10.4307 -105.246
rfemur -7.34785 9.30267 20.24
rtibia -1.47101e-014
rfoot 0.520329 -13.9252
rtoes -20.1568
lfemur -16.0103 -19.0114 -10.9046
ltibia 19.2122
lfoot -14.0414 20.0165
ltoes -24.4683
198
root -0.194861 17.8818 -0.805579 0.938402 69.6517 -9.94994
lowerback 2.66141 0.76928 -1.76822
upperback -0.341089 0.962869 -0.305054
thorax -1.86546 0.497894 0.637306
lowerneck -19.3592 -1.40182 1.96432
upperneck 46.6513 -3.06421 4.24093
head 23.5788 0.425541 1.52129
rclavicle 1.76918e-014 3.97569e-015
rhumerus -25.8021 33.4254 -95.4946
rradius 82.834
rwrist -28.4973
rhand -23.8331 -0.152343
rfingers 7.12502
rthumb 2.63858 -30.1158
lclavicle 1.76918e-014 3.97569e-015
lhumerus -29.1116 -28.5425 100.72
lradius 80.9453
lwrist 70.4484
lhand -15.8022 75.1624
lfingers 7.12502
lthumb 10.391 -104.886
rfemur -7.27977 9.22699 20.2383
rtibia 3.97569e-015
rfoot 0.532092 -13.8392
rtoes -20.9914
lfemur -15.9563 -18.9185 -10.9481
ltibia 19.1642
lfoot -13.9124 19.8737
ltoes -25.0597
199
root -0.192386 17.8809 -0.800745 0.987065 69.7372 -9.8703
lowerback 2.63665 0.742795 -1.69988
upperback -0.348801 0.930308 -0.298736
thorax -1.85767 0.480932 0.607197
lowerneck -19.5294 -1.35345 2.04826
upperneck 46.7401 -2.99006 4.1588
head 23.7281 0.462159 1.4857
rclavicle 5.66536e-014 1.03368e-014
rhumerus -26.1954 34.1382 -95.7429
rradius 82.8357
rwrist -28.5241
rhand -23.5634 0.698397
rfingers 7.12502
rthumb 2.89898 -29.2616
lclavicle 5.66536e-014 1.03368e-014
lhumerus -28.678 -28.1496 100.631
lradius 80.5289
lwrist 70.5577
lhand -16.624 74.4486
lfingers 7.12502
lthumb 9.59817 -104.21
rfemur -7.21586 9.14378 20.2293
rtibia 7.95139e-015
rfoot 0.491992 -13.8576
rtoes -21.2373
lfemur -15.9125 -18.7181 -11.0162
ltibia 19.1052
lfoot -13.6637 19.6718
ltoes -26.1921
